<svg width="594" height="1064" viewBox="0 0 594 1064" fill="none" xmlns="http://www.w3.org/2000/svg">
<g clip-path="url(#clip0_4_9260)">
<path d="M482.814 1064L478.018 1007.98C474.92 971.789 480.379 934.713 493.733 900.806C522.212 828.424 539.108 780.733 541.321 766.434C545.01 742.552 542.207 668.252 540.141 626.09C539.182 605.894 541.69 585.771 547.74 566.312L548.478 563.879C551.724 553.339 551.355 532.258 550.691 515.083C550.322 504.764 553.79 494.297 558.66 479.703C563.898 464.076 571.055 442.7 576.809 411.079C582.933 377.615 578.211 362.799 571.792 360.146C565.669 357.639 555.93 364.642 546.265 378.426C535.124 394.421 527.746 432.307 520.663 468.941C512.842 509.334 505.391 547.442 492.774 557.467C488.348 561.005 484.437 561.889 481.191 560.194C472.116 555.403 473.075 531.078 475.362 499.752C475.953 491.791 476.469 485.01 476.469 480.366C476.469 468.941 484.437 427.811 493.66 380.268C502.513 334.642 511.662 287.394 514.392 262.922C516.974 239.409 512.99 227.616 507.899 226.289C502.661 224.962 492.774 234.028 483.331 257.099C472.264 284.298 454.335 360.44 439.948 421.62C429.767 464.887 420.987 502.258 417.003 512.209C412.65 523.044 405.862 528.793 398.705 527.614C389.04 525.993 382.474 512.504 381.588 492.381C380.851 475.796 382.326 425.821 383.876 372.897C385.72 310.834 387.565 246.559 386.31 225.478C385.351 210.146 379.523 199.458 371.702 198.942C362.922 198.353 351.634 210.883 345.953 240.072C334.738 297.861 334.222 442.922 336.509 492.16C337.69 517.663 334.443 533.732 326.918 539.924C322.934 543.167 319.245 542.43 318.876 542.356C281.765 539.776 275.862 437.32 273.059 332.652C272.763 320.637 272.468 309.949 272.026 301.252C271.066 279.581 271.362 260.785 271.583 245.748C272.026 219.36 272.321 201.965 265.164 200.343C260.516 199.311 257.417 199.09 254.835 200.859C248.269 205.281 243.104 222.824 236.907 261.227C228.791 311.718 228.569 420.44 228.496 485.378C228.496 502.848 228.422 517.59 228.274 527.762C228.053 540.882 229.529 557.172 231.078 574.42C235.357 621.815 240.153 675.55 212.707 691.987C206.214 695.893 199.648 696.925 193.229 695.083C174.194 689.554 158.995 659.407 142.837 627.417C135.386 612.675 127.713 597.417 119.597 584.444C100.931 554.592 53.4165 487.663 16.6005 507.86C10.9194 510.956 7.52555 515.01 6.19752 520.243C2.36098 535.501 17.4858 558.72 29.5857 577.442C34.0862 584.297 38.2917 590.783 41.3904 596.533C51.7933 615.697 55.8512 619.604 63.8194 627.27C67.0657 630.439 71.1974 634.346 76.5095 640.169C92.8148 657.933 98.791 674.886 113.104 716.016C115.17 721.839 117.31 728.178 119.744 735.107C130.074 764.517 160.84 795.475 190.573 825.401C217.65 852.674 243.252 878.472 255.573 903.829C281.691 957.563 277.412 1052.8 277.19 1056.78L271.657 1056.48C271.731 1055.52 276.084 958.669 250.556 906.187C238.603 881.568 212.19 854.959 186.589 829.234C156.413 798.866 125.278 767.466 114.506 736.95C112.071 730.021 109.858 723.682 107.792 717.859C93.3313 676.36 87.9454 660.808 72.3779 643.928C67.1395 638.252 63.303 634.493 59.9091 631.25C51.7196 623.363 47.2928 619.088 36.4472 599.113C33.4222 593.584 29.2906 587.172 24.8638 580.39C11.4359 559.825 -3.68895 536.459 0.737827 518.843C2.43476 512.135 6.86154 506.828 13.8706 502.995C54.8921 480.587 104.693 550.317 124.245 581.349C132.582 594.543 140.255 609.874 147.781 624.764C163.348 655.574 178.03 684.763 194.705 689.554C199.648 690.955 204.591 690.144 209.756 687.048C234.177 672.38 229.529 620.488 225.471 574.715C223.921 557.319 222.446 540.882 222.667 527.467C222.815 517.295 222.888 502.627 222.888 485.157C223.036 419.998 223.183 310.981 231.373 260.122C238.013 218.918 243.473 201.596 251.662 196.068C256.384 192.898 261.475 193.635 266.345 194.741C277.928 197.321 277.633 214.495 277.116 245.601C276.895 260.564 276.6 279.286 277.559 300.809C277.928 309.507 278.223 320.195 278.592 332.283C280.51 402.824 284.052 534.101 319.761 536.68C320.204 536.754 321.753 536.975 323.671 535.206C326.991 532.258 332.451 522.676 330.976 492.16C328.688 442.774 329.205 296.976 340.493 238.746C347.281 204.028 361.151 192.603 371.997 193.193C382.916 193.93 390.663 206.387 391.77 224.888C393.024 246.19 391.18 310.539 389.335 372.75C387.786 425.6 386.31 475.501 387.048 491.865C387.933 511.177 394.131 520.98 399.591 521.938C403.87 522.676 408.518 518.106 411.764 509.924C415.601 500.342 424.381 463.192 434.488 420.145C448.949 358.819 466.951 282.456 478.166 254.814C487.905 231.006 499.414 218.254 509.227 220.687C518.745 223.119 522.581 238.598 519.851 263.291C517.122 288.057 507.899 335.379 499.046 381.079C490.266 426.411 481.929 469.236 481.929 480.145C481.929 485.01 481.412 491.939 480.822 499.973C479.494 518.032 477.059 551.643 483.699 555.182C485.249 555.992 487.831 554.223 489.307 553.044C500.3 544.346 507.899 505.427 515.203 467.762C522.434 430.538 529.886 392.062 541.764 375.109C553.347 358.524 565.152 351.153 574.006 354.838C585.22 359.482 588.171 379.752 582.343 411.89C576.514 443.954 569.284 465.551 564.045 481.324C559.324 495.329 556.004 505.501 556.299 514.789C557.036 533.511 557.258 554.15 553.79 565.501L553.052 567.933C547.224 586.729 544.715 606.262 545.674 625.795C548.183 677.54 550.396 744.1 546.781 767.244C543.83 786.04 519.114 851.347 498.898 902.797C485.839 935.966 480.527 972.158 483.552 1007.54L488.348 1063.56L482.814 1064Z" fill="#F06649"/>
<path d="M242.809 279.285C246.645 278.917 249.965 278.99 253.359 278.917C256.753 278.99 260.073 278.843 263.91 279.285C260.885 281.644 257.122 282.602 253.359 282.602C249.597 282.602 245.834 281.644 242.809 279.285Z" fill="#F06649"/>
<path d="M355.175 285.623C358.938 285.107 362.332 285.181 365.726 285.107C369.12 285.181 372.514 285.107 376.276 285.623C373.178 287.908 369.415 288.719 365.726 288.793C362.037 288.719 358.274 287.835 355.175 285.623Z" fill="#F06649"/>
<path d="M482.74 297.495C486.429 298.6 489.528 300.075 492.7 301.18C495.873 302.433 498.972 303.244 502.661 304.276C499.193 306.119 494.988 305.898 491.372 304.571C487.831 303.17 484.659 300.812 482.74 297.495Z" fill="#F06649"/>
<path d="M236.98 390.148C242.956 390 248.564 390.148 254.245 390C259.926 390 265.607 389.779 271.509 390.148C266.049 392.58 260.147 393.538 254.245 393.686C248.342 393.612 242.366 392.727 236.98 390.148Z" fill="#F06649"/>
<path d="M239.858 518.034C245.834 518.476 251.441 518.992 257.122 518.992C262.803 519.065 268.41 518.476 274.387 518.034C269.222 521.203 263.172 522.604 257.122 522.604C251.072 522.604 245.022 521.203 239.858 518.034Z" fill="#F06649"/>
<path d="M345.289 520.832C351.265 520.537 356.872 520.685 362.553 520.611C368.234 520.685 373.841 520.464 379.817 520.832C374.358 523.265 368.455 524.223 362.553 524.297C356.651 524.223 350.674 523.338 345.289 520.832Z" fill="#F06649"/>
<path d="M428.955 513.903C434.489 516.188 439.506 518.694 444.744 520.905C449.909 523.19 455.221 525.18 460.607 527.76C454.63 527.981 448.728 526.581 443.268 524.296C437.809 521.863 432.718 518.546 428.955 513.903Z" fill="#F06649"/>
<path d="M504.727 553.263C510.26 555.621 515.351 557.906 520.663 559.749C525.975 561.739 531.435 563.213 537.042 565.277C531.066 566.088 525.09 565.13 519.409 563.213C513.801 561.076 508.489 557.906 504.727 553.263Z" fill="#F06649"/>
<path d="M343.297 385.135C349.199 384.692 354.88 384.84 360.561 384.766C366.242 384.84 371.923 384.692 377.826 385.135C372.366 387.493 366.463 388.378 360.561 388.452C354.659 388.304 348.756 387.493 343.297 385.135Z" fill="#F06649"/>
<path d="M452.269 391.324C457.729 393.756 462.82 396.041 468.206 397.81C473.518 399.727 479.051 401.127 484.659 403.191C478.682 404.002 472.633 403.191 466.951 401.275C461.344 399.285 455.958 396.041 452.269 391.324Z" fill="#F06649"/>
<path d="M522.508 473.067C528.262 474.689 533.501 476.753 538.813 478.669C544.125 480.733 549.437 482.502 554.897 484.934C548.921 485.377 543.092 484.124 537.559 482.133C532.099 479.996 526.861 477.195 522.508 473.067Z" fill="#F06649"/>
<path d="M538.223 419.188C543.461 420.957 548.257 422.947 553.2 424.642C558.143 426.485 563.086 427.959 568.177 430.171C562.644 430.834 557.11 429.95 551.946 428.18C546.855 426.19 541.912 423.389 538.223 419.188Z" fill="#F06649"/>
<path d="M285.601 713.876C298.217 723.09 308.989 735.179 316.81 748.889C324.631 762.599 329.869 778.004 331.123 793.925C331.64 797.832 331.271 801.886 331.344 805.792C331.271 807.783 331.344 809.773 331.271 811.763L330.459 817.66C329.795 821.566 329.574 825.547 328.615 829.38L325.368 840.805C324.483 844.637 322.786 848.249 321.237 851.861L316.515 862.696C312.678 869.551 308.473 876.185 304.562 882.967C308.03 875.89 311.645 869.035 314.892 861.959L319.023 851.05C320.425 847.438 321.901 843.827 322.638 839.994L325.442 828.716C326.327 824.957 326.475 821.05 327.065 817.291L327.803 811.542C327.877 809.625 327.803 807.709 327.803 805.792C327.655 801.96 328.024 798.053 327.434 794.294C326.475 778.888 321.458 763.999 314.301 750.363C312.604 746.898 310.391 743.729 308.399 740.338C306.186 737.169 303.972 733.999 301.537 730.903C296.889 724.712 291.577 718.962 285.601 713.876Z" fill="#F06649"/>
<path d="M374.136 901.103C380.482 884.739 385.277 867.86 389.261 850.907C393.245 833.88 396.197 816.705 397.82 799.31C398.926 790.686 399.222 781.914 399.812 773.217C399.812 764.519 400.181 755.747 399.59 747.05C399.369 742.701 399.295 738.352 399 734.003L397.672 720.956C397.082 712.185 395.164 703.635 393.909 694.937C398.041 711.964 401.583 729.286 402.468 746.902C403.427 755.674 402.984 764.519 403.206 773.29C402.763 782.062 402.615 790.907 401.509 799.678C399.59 817.148 396.639 834.617 391.991 851.57C387.491 868.523 381.736 885.255 374.136 901.103Z" fill="#F06649"/>
<path d="M270.55 694.937C288.552 699.138 306.554 703.561 324.483 708.205L378.121 722.431L431.537 737.467C449.318 742.553 467.025 747.934 484.732 753.462C466.73 749.261 448.728 744.838 430.799 740.195L377.161 725.969L323.745 710.932C305.964 705.846 288.257 700.465 270.55 694.937Z" fill="#F06649"/>
<path d="M292.61 629.851C299.25 636.485 306.333 642.75 313.711 648.573C320.941 654.544 328.467 660.146 336.214 665.526C351.634 676.141 367.939 685.575 385.056 693.167C401.952 701.276 420.028 706.509 438.325 710.342L452.122 712.774L466.14 713.88L473.149 714.47L480.158 714.322L494.25 714.027C475.584 715.944 456.401 716.828 437.735 713.143C419.068 709.9 400.697 704.519 383.507 696.558C366.316 688.597 349.789 679.089 334.591 667.885C319.318 656.607 305.079 644.003 292.61 629.851Z" fill="#F06649"/>
<path d="M299.029 934.05C309.358 936.408 319.908 937.735 330.385 938.03C340.788 938.104 351.412 937.367 361.077 933.828C370.816 930.733 379.301 923.878 389.335 919.75C391.844 918.792 394.5 917.833 397.377 917.612C400.328 917.391 403.279 918.571 405.493 920.118C409.846 923.435 413.535 927.121 417.593 930.585C413.092 927.784 408.961 924.246 404.534 921.593C402.32 920.266 400.033 919.529 397.598 919.897C395.164 920.192 392.803 921.224 390.516 922.33C381.146 926.752 372.735 933.534 362.258 937.293C351.855 940.757 340.936 941.494 330.238 940.831C319.54 940.02 308.989 937.882 299.029 934.05Z" fill="#F06649"/>
<path d="M501.111 588.353C493.143 588.058 485.322 586.658 477.576 584.741C469.829 582.898 462.229 580.245 454.925 577.223C440.243 571.031 426.446 562.333 415.158 551.203C421.798 555.552 428.291 559.975 435.226 563.66C442.088 567.419 449.097 570.884 456.327 573.906C470.714 580.024 485.691 584.741 501.111 588.353Z" fill="#F06649"/>
<path d="M104.841 652.039C110.005 648.722 114.875 645.7 119.375 642.088C121.663 640.393 123.728 638.402 125.868 636.412C128.008 634.422 129.705 632.137 131.77 629.778C130.59 635.823 126.532 641.13 121.736 644.963C116.719 648.722 110.965 651.449 104.841 652.039Z" fill="#F06649"/>
<path d="M65.1475 590.71C70.312 587.393 75.1815 584.371 79.682 580.76C81.9692 579.064 84.035 577.074 86.1747 575.084C88.3143 573.094 90.0112 570.809 92.077 568.45C90.8965 574.494 86.8387 579.801 82.043 583.634C77.026 587.393 71.2712 590.121 65.1475 590.71Z" fill="#F06649"/>
<path d="M399.148 0C416.043 10.3931 427.258 29.0416 427.258 50.3437C427.258 82.9972 400.771 109.459 368.013 109.459C346.395 109.459 327.508 97.8865 317.179 80.5647C325.958 105.036 349.347 122.506 376.793 122.506C411.838 122.506 440.169 94.201 440.169 59.2626C440.169 32.1374 423.126 8.99259 399.148 0ZM420.323 97.2231C416.412 101.425 411.838 104.963 406.895 107.616C401.878 110.27 396.639 112.26 391.18 113.513C385.794 114.766 380.26 115.429 374.801 115.577C369.341 115.577 363.807 115.356 358.495 114.103C363.955 114.176 369.341 113.66 374.579 112.923C379.891 112.186 385.056 111.007 390.073 109.385C400.107 106.216 409.477 101.203 416.339 93.6114C419.806 89.8522 422.536 85.5033 424.602 80.7859C425.709 78.5009 426.446 75.9947 427.258 73.5623C427.848 70.9825 428.586 68.4763 428.955 65.8965C430.652 55.5771 430.43 44.7418 429.471 33.9802C432.644 44.2995 434.193 55.356 433.16 66.4862C432.349 77.5426 427.996 88.6728 420.323 97.2231Z" fill="#F06649"/>
<path d="M463.189 763.118C473.518 769.531 480.379 780.956 480.379 793.929C480.379 813.905 464.222 830.121 444.154 830.121C430.947 830.121 419.364 823.045 413.092 812.43C418.404 827.394 432.718 838.155 449.539 838.155C470.936 838.155 488.348 820.76 488.348 799.384C488.348 782.799 477.871 768.647 463.189 763.118ZM476.174 822.676C473.813 825.182 471.009 827.32 467.984 829.015C464.886 830.637 461.639 831.816 458.319 832.553C455.073 833.364 451.679 833.733 448.285 833.88C444.965 833.88 441.571 833.733 438.325 832.995C441.645 832.995 444.965 832.701 448.211 832.258C451.384 831.742 454.63 831.079 457.655 830.121C463.779 828.131 469.534 825.035 473.739 820.391C475.879 818.106 477.502 815.452 478.756 812.578C479.494 811.177 479.937 809.629 480.379 808.155C480.748 806.607 481.265 805.059 481.412 803.512C482.519 797.172 482.298 790.539 481.707 783.978C483.699 790.317 484.659 797.025 483.995 803.806C483.478 810.588 480.896 817.443 476.174 822.676Z" fill="#F06649"/>
<path d="M376.202 661.985C375.833 661.985 375.538 661.985 375.169 661.985C351.486 661.764 329.426 653.067 316.293 638.767L315.851 638.325L316.219 637.809C332.672 616.359 353.626 604.418 375.169 604.197C375.391 604.197 375.538 604.197 375.76 604.197C397.672 604.197 418.478 615.769 436.038 637.735L436.407 638.251L435.964 638.693C421.798 653.583 400.033 661.985 376.202 661.985ZM317.769 638.251C330.754 651.961 352.15 660.29 375.243 660.511C375.612 660.511 375.907 660.511 376.276 660.511C399.443 660.511 420.618 652.403 434.562 638.177C417.371 616.875 397.082 605.671 375.833 605.671C375.612 605.671 375.465 605.671 375.243 605.671C354.29 605.966 333.853 617.465 317.769 638.251Z" fill="#F06649"/>
<path d="M375.391 659.037C359.602 659.037 346.69 646.728 346.69 631.617C346.69 616.507 359.528 604.197 375.391 604.197C391.18 604.197 404.091 616.507 404.091 631.617C404.017 646.728 391.18 659.037 375.391 659.037ZM375.391 607.145C361.151 607.145 349.568 618.128 349.568 631.691C349.568 645.18 361.151 656.236 375.391 656.236C389.63 656.236 401.214 645.253 401.214 631.691C401.14 618.128 389.63 607.145 375.391 607.145Z" fill="#F06649"/>
<path d="M374.284 648.495C384.39 648.495 392.582 640.311 392.582 630.215C392.582 620.119 384.39 611.935 374.284 611.935C364.179 611.935 355.987 620.119 355.987 630.215C355.987 640.311 364.179 648.495 374.284 648.495Z" fill="#FFE6E0"/>
<path d="M374.948 646.213C365.578 646.213 357.905 638.916 357.905 629.923C357.905 620.931 365.578 613.633 374.948 613.633C384.318 613.633 391.991 620.931 391.991 629.923C391.991 638.916 384.392 646.213 374.948 646.213ZM374.948 615.108C366.39 615.108 359.381 621.741 359.381 629.923C359.381 638.105 366.39 644.739 374.948 644.739C383.507 644.739 390.516 638.105 390.516 629.923C390.516 621.741 383.58 615.108 374.948 615.108Z" fill="#F06649"/>
<path d="M386.237 630.072C383.064 629.556 379.818 629.409 376.645 629.335C378.859 627.05 380.998 624.691 382.917 622.111C380.334 624.028 377.9 626.166 375.612 628.377C375.539 625.207 375.391 621.964 374.948 618.794C374.432 621.964 374.284 625.207 374.211 628.377C371.923 626.166 369.563 624.028 366.98 622.111C368.899 624.691 371.038 627.05 373.251 629.335C370.079 629.409 366.833 629.556 363.66 630.072C366.833 630.514 370.079 630.736 373.251 630.736C371.038 633.021 368.899 635.379 366.98 638.033C369.563 636.116 371.923 633.979 374.211 631.767C374.284 634.937 374.432 638.18 374.948 641.35C375.391 638.18 375.612 634.937 375.612 631.767C377.9 633.979 380.261 636.116 382.917 638.033C380.998 635.453 378.859 633.021 376.645 630.736C379.818 630.662 383.064 630.514 386.237 630.072ZM378.785 633.831C377.531 632.947 376.424 631.915 375.317 630.809C375.317 632.357 375.244 633.905 375.022 635.379C374.801 633.831 374.727 632.283 374.653 630.809C373.547 631.841 372.44 632.873 371.186 633.831C372.071 632.578 373.104 631.473 374.211 630.367C372.661 630.367 371.112 630.293 369.636 630.072C371.186 629.851 372.735 629.777 374.211 629.704C373.104 628.598 372.145 627.492 371.186 626.239C372.44 627.124 373.547 628.156 374.653 629.261C374.653 627.713 374.727 626.166 375.022 624.691C375.244 626.239 375.317 627.787 375.317 629.261C376.424 628.156 377.531 627.197 378.785 626.239C377.9 627.492 376.867 628.598 375.76 629.704C377.309 629.704 378.859 629.777 380.334 630.072C378.785 630.293 377.236 630.367 375.76 630.367C376.867 631.473 377.9 632.652 378.785 633.831Z" fill="#F06649"/>
<path d="M314.874 623.47L313.03 625.676L321.467 632.717L323.312 630.511L314.874 623.47Z" fill="#F06649"/>
<path d="M321.063 611.709L318.839 613.533L326.846 623.275L329.07 621.451L321.063 611.709Z" fill="#F06649"/>
<path d="M331.213 602.98L328.722 604.42L335.926 616.861L338.416 615.422L331.213 602.98Z" fill="#F06649"/>
<path d="M342.905 595.248L340.244 596.343L345.81 609.837L348.47 608.742L342.905 595.248Z" fill="#F06649"/>
<path d="M355.969 589.108L353.153 589.7L356.45 605.353L359.266 604.761L355.969 589.108Z" fill="#F06649"/>
<path d="M370.964 582.529H368.087V603.094H370.964V582.529Z" fill="#F06649"/>
<path d="M382.631 585.901L380.467 602.865L383.322 603.228L385.485 586.264L382.631 585.901Z" fill="#F06649"/>
<path d="M397.359 589.609L393.25 603.152L396.004 603.986L400.112 590.442L397.359 589.609Z" fill="#F06649"/>
<path d="M414.128 598.228L406.528 607.155L408.72 609.017L416.32 600.09L414.128 598.228Z" fill="#F06649"/>
<path d="M423.063 607.752L416.75 614.059L418.785 616.091L425.097 609.785L423.063 607.752Z" fill="#F06649"/>
<path d="M433.184 619.184L426.12 622.869L427.452 625.417L434.516 621.733L433.184 619.184Z" fill="#F06649"/>
<path d="M385.794 576.187H369.267L377.826 557.833L385.794 576.187ZM371.554 574.713H383.654L377.826 561.298L371.554 574.713Z" fill="#F06649"/>
<path d="M362.848 582.673H346.322L354.88 564.319L362.848 582.673ZM348.535 581.272H360.635L354.806 567.857L348.535 581.272Z" fill="#F06649"/>
<path d="M409.772 582.673H393.245L401.804 564.319L409.772 582.673ZM395.459 581.272H407.559L401.73 567.857L395.459 581.272Z" fill="#F06649"/>
<path d="M199.5 158.774C188.95 157.152 178.399 156.636 167.775 156.415C175.079 148.823 182.162 141.01 188.581 132.459C179.949 138.798 172.128 145.874 164.529 153.172C164.307 142.631 163.791 132.091 162.241 121.477C160.618 132.017 160.102 142.558 159.88 153.172C152.281 145.874 144.461 138.798 135.902 132.459C142.247 141.01 149.33 148.897 156.634 156.415C146.084 156.636 135.533 157.152 124.909 158.774C135.459 160.322 146.01 160.838 156.634 161.059C149.33 168.651 142.247 176.464 135.902 185.088C144.461 178.749 152.355 171.599 159.88 164.302C160.102 174.842 160.618 185.383 162.241 195.997C163.791 185.457 164.307 174.916 164.529 164.302C172.128 171.599 179.949 178.749 188.581 185.088C182.236 176.464 175.079 168.651 167.775 161.059C178.399 160.838 188.95 160.322 199.5 158.774Z" fill="#F06649"/>
<path d="M292.684 561.077C285.232 559.898 277.707 559.529 270.255 559.456C275.419 554.075 280.436 548.547 284.937 542.502C278.813 546.999 273.28 552.011 267.968 557.171C267.82 549.726 267.451 542.208 266.344 534.763C265.164 542.208 264.795 549.726 264.721 557.171C259.335 552.011 253.802 546.999 247.752 542.502C252.253 548.547 257.27 554.075 262.434 559.456C254.982 559.603 247.457 559.972 240.005 561.077C247.457 562.183 254.982 562.551 262.434 562.699C257.27 568.08 252.253 573.608 247.752 579.652C253.802 575.156 259.335 570.144 264.721 564.984C264.869 572.429 265.238 579.947 266.344 587.392C267.451 579.947 267.82 572.429 267.968 564.984C273.354 570.144 278.887 575.23 284.937 579.652C280.436 573.534 275.419 568.006 270.255 562.699C277.78 562.551 285.232 562.183 292.684 561.077Z" fill="#F06649"/>
<path d="M99.3812 622.112C93.2574 622.112 88.3142 617.174 88.3142 611.056C88.3142 604.938 93.2574 599.999 99.3812 599.999C105.505 599.999 110.448 604.938 110.448 611.056C110.448 617.174 105.505 622.112 99.3812 622.112ZM99.3812 603.685C95.3233 603.685 92.0032 607.002 92.0032 611.056C92.0032 615.11 95.3233 618.427 99.3812 618.427C103.439 618.427 106.759 615.11 106.759 611.056C106.759 607.002 103.439 603.685 99.3812 603.685Z" fill="#F06649"/>
<path d="M257.122 456.778C250.998 456.778 246.055 451.839 246.055 445.721C246.055 439.603 250.998 434.665 257.122 434.665C263.246 434.665 268.189 439.603 268.189 445.721C268.189 451.839 263.246 456.778 257.122 456.778ZM257.122 438.35C253.064 438.35 249.744 441.667 249.744 445.721C249.744 449.775 253.064 453.092 257.122 453.092C261.18 453.092 264.5 449.775 264.5 445.721C264.5 441.667 261.18 438.35 257.122 438.35Z" fill="#F06649"/>
<path d="M360.045 456.778C353.921 456.778 348.978 451.839 348.978 445.721C348.978 439.603 353.921 434.665 360.045 434.665C366.168 434.665 371.111 439.603 371.111 445.721C371.111 451.839 366.168 456.778 360.045 456.778ZM360.045 438.35C355.987 438.35 352.667 441.667 352.667 445.721C352.667 449.775 355.987 453.092 360.045 453.092C364.102 453.092 367.422 449.775 367.422 445.721C367.422 441.667 364.102 438.35 360.045 438.35Z" fill="#F06649"/>
<path d="M459.204 456.778C453.081 456.778 448.137 451.839 448.137 445.721C448.137 439.603 453.081 434.665 459.204 434.665C465.328 434.665 470.271 439.603 470.271 445.721C470.271 451.839 465.328 456.778 459.204 456.778ZM459.204 438.35C455.147 438.35 451.826 441.667 451.826 445.721C451.826 449.775 455.147 453.092 459.204 453.092C463.262 453.092 466.582 449.775 466.582 445.721C466.582 441.667 463.336 438.35 459.204 438.35Z" fill="#F06649"/>
<path d="M531.14 526.585C525.016 526.585 520.073 521.646 520.073 515.529C520.073 509.411 525.016 504.472 531.14 504.472C537.263 504.472 542.207 509.411 542.207 515.529C542.207 521.646 537.263 526.585 531.14 526.585ZM531.14 508.158C527.082 508.158 523.762 511.475 523.762 515.529C523.762 519.583 527.082 522.9 531.14 522.9C535.198 522.9 538.518 519.583 538.518 515.529C538.518 511.475 535.271 508.158 531.14 508.158Z" fill="#F06649"/>
<path d="M547.445 458.845C542.797 458.845 539.108 455.085 539.108 450.515C539.108 445.945 542.871 442.186 547.445 442.186C552.019 442.186 555.782 445.945 555.782 450.515C555.782 455.085 552.093 458.845 547.445 458.845ZM547.445 445.798C544.863 445.798 542.797 447.862 542.797 450.442C542.797 453.022 544.863 455.085 547.445 455.085C550.027 455.085 552.093 453.022 552.093 450.442C552.093 447.862 550.027 445.798 547.445 445.798Z" fill="#F06649"/>
<path d="M561.463 407.176C556.815 407.176 553.126 403.416 553.126 398.846C553.126 394.276 556.889 390.517 561.463 390.517C566.111 390.517 569.8 394.276 569.8 398.846C569.8 403.416 566.037 407.176 561.463 407.176ZM561.463 394.129C558.881 394.129 556.815 396.193 556.815 398.773C556.815 401.352 558.955 403.416 561.463 403.416C563.972 403.416 566.111 401.352 566.111 398.773C566.111 396.193 564.045 394.129 561.463 394.129Z" fill="#F06649"/>
<path d="M478.166 365.304C473.518 365.304 469.829 361.545 469.829 356.975C469.829 352.405 473.592 348.646 478.166 348.646C482.74 348.646 486.503 352.405 486.503 356.975C486.503 361.545 482.74 365.304 478.166 365.304ZM478.166 352.258C475.584 352.258 473.518 354.322 473.518 356.901C473.518 359.481 475.584 361.545 478.166 361.545C480.748 361.545 482.814 359.481 482.814 356.901C482.814 354.322 480.748 352.258 478.166 352.258Z" fill="#F06649"/>
<path d="M362.553 342.679C357.905 342.679 354.216 338.92 354.216 334.35C354.216 329.78 357.979 326.021 362.553 326.021C367.128 326.021 370.891 329.78 370.891 334.35C370.891 338.92 367.128 342.679 362.553 342.679ZM362.553 329.633C359.971 329.633 357.905 331.697 357.905 334.277C357.905 336.856 359.971 338.92 362.553 338.92C365.136 338.92 367.202 336.856 367.202 334.277C367.202 331.697 365.136 329.633 362.553 329.633Z" fill="#F06649"/>
<path d="M254.245 343.047C249.597 343.047 245.908 339.287 245.908 334.717C245.908 330.147 249.67 326.388 254.245 326.388C258.893 326.388 262.582 330.147 262.582 334.717C262.582 339.287 258.819 343.047 254.245 343.047ZM254.245 330C251.663 330 249.597 332.064 249.597 334.644C249.597 337.224 251.663 339.287 254.245 339.287C256.827 339.287 258.893 337.224 258.893 334.644C258.893 332.064 256.827 330 254.245 330Z" fill="#F06649"/>
<path d="M62.27 569.409C57.6218 569.409 53.9329 565.65 53.9329 561.08C53.9329 556.51 57.6956 552.751 62.27 552.751C66.9181 552.751 70.6071 556.51 70.6071 561.08C70.6071 565.65 66.8443 569.409 62.27 569.409ZM62.27 556.362C59.6877 556.362 57.6218 558.426 57.6218 561.006C57.6218 563.586 59.6877 565.65 62.27 565.65C64.8522 565.65 66.9181 563.586 66.9181 561.006C66.9181 558.426 64.7785 556.362 62.27 556.362Z" fill="#F06649"/>
<path d="M452.491 892.404C455.811 892.256 459.205 891.888 462.525 890.708C459.205 889.455 455.811 889.161 452.491 889.013C452.343 885.696 451.974 882.306 450.794 878.989C449.539 882.306 449.244 885.696 449.097 889.013C445.777 889.161 442.383 889.529 439.063 890.708C442.383 891.962 445.777 892.33 449.097 892.404C449.244 895.721 449.613 899.111 450.794 902.428C451.974 899.111 452.343 895.794 452.491 892.404Z" fill="#F06649"/>
<path d="M485.913 663.759C489.233 663.611 492.627 663.243 495.947 662.063C492.627 660.81 489.233 660.516 485.913 660.368C485.765 657.051 485.396 653.661 484.216 650.344C482.962 653.661 482.666 657.051 482.519 660.368C479.199 660.516 475.805 660.884 472.485 662.063C475.805 663.317 479.199 663.685 482.519 663.759C482.666 667.076 483.035 670.466 484.216 673.783C485.47 670.466 485.839 667.076 485.913 663.759Z" fill="#F06649"/>
<path d="M161.725 726.409C166.004 726.262 170.283 725.746 174.563 724.198C170.283 722.65 166.004 722.208 161.725 721.987C161.577 717.712 161.061 713.436 159.512 709.161C157.962 713.436 157.519 717.712 157.298 721.987C153.019 722.134 148.74 722.576 144.46 724.198C148.74 725.746 153.019 726.188 157.298 726.409C157.446 730.684 157.962 734.96 159.512 739.235C161.061 734.886 161.504 730.611 161.725 726.409Z" fill="#F06649"/>
<path d="M282.65 820.244C276.821 820.244 269.443 816.264 262.065 812.21C253.655 816.854 245.391 820.539 239.784 818.549C237.644 817.738 236.095 816.19 235.21 813.905C234.546 812.063 234.398 809.925 234.767 807.861C235.283 805.134 236.611 803.07 238.456 801.817C240.448 800.49 243.03 800.122 246.129 800.785C250.556 801.67 256.089 804.765 261.992 808.082C262.803 807.64 263.615 807.124 264.353 806.756C265.607 806.018 266.787 805.355 267.599 804.913C275.862 800.417 283.757 801.522 287.962 803.734C291.135 805.429 293.053 809.851 292.241 813.684C291.872 815.527 290.249 819.802 283.462 820.318C283.314 820.244 283.019 820.244 282.65 820.244ZM265.902 810.073C272.321 813.611 279.035 816.928 283.388 816.559C285.527 816.412 288.257 815.601 288.847 812.873C289.364 810.441 288.036 807.714 286.487 806.903C283.093 805.06 276.6 804.323 269.591 808.082C268.706 808.525 267.673 809.188 266.418 809.851C266.123 809.851 265.976 809.999 265.902 810.073ZM238.751 812.579C239.194 813.832 240.005 814.643 241.112 815.085C245.022 816.485 252.253 813.316 258.303 810.073C253.433 807.345 248.933 804.987 245.539 804.323C243.399 803.881 241.776 804.028 240.596 804.839C239.268 805.724 238.677 807.345 238.456 808.525C238.161 809.925 238.235 811.326 238.751 812.579Z" fill="#F06649"/>
<path d="M545.527 161.942C550.396 161.721 555.192 161.205 560.061 159.436C555.192 157.667 550.396 157.151 545.527 156.93C545.305 152.065 544.789 147.274 543.018 142.409C541.247 147.274 540.731 152.065 540.51 156.93C535.64 157.151 530.845 157.667 525.975 159.436C530.845 161.205 535.64 161.721 540.51 161.942C540.731 166.807 541.247 171.598 543.018 176.463C544.789 171.672 545.305 166.807 545.527 161.942Z" fill="#F06649"/>
<path d="M579.465 130.32C584.335 130.099 589.131 129.583 594 127.814C589.131 126.045 584.335 125.529 579.465 125.308C579.244 120.443 578.728 115.652 576.957 110.787C575.186 115.652 574.67 120.443 574.448 125.308C569.579 125.529 564.783 126.045 559.914 127.814C564.783 129.583 569.579 130.099 574.448 130.32C574.67 135.185 575.186 139.976 576.957 144.841C578.728 139.976 579.244 135.112 579.465 130.32Z" fill="#F06649"/>
</g>
<defs>
<clipPath id="clip0_4_9260">
<rect width="594" height="1064" fill="white"/>
</clipPath>
</defs>
</svg>
